<mxfile host="app.diagrams.net" agent="Mozilla/5.0 (Windows NT 10.0; Win64; x64) AppleWebKit/537.36 (KHTML, like Gecko) Chrome/131.0.0.0 Safari/537.36" version="25.0.3">
  <diagram name="페이지-1" id="DXrG6RBHk8EfYJ0cVZuX">
    <mxGraphModel dx="1434" dy="883" grid="1" gridSize="10" guides="1" tooltips="1" connect="1" arrows="1" fold="1" page="1" pageScale="1" pageWidth="827" pageHeight="1169" math="0" shadow="0">
      <root>
        <mxCell id="0" />
        <mxCell id="1" parent="0" />
        <mxCell id="T2Pp6pwfX38MpLjrD5T6-1" value="" style="endArrow=classic;html=1;rounded=0;fontSize=12;startSize=8;endSize=8;edgeStyle=elbowEdgeStyle;" parent="1" source="5rK0yduPM2hFeAOG0hjZ-4" target="Nt1TfCaZBekBmvhZon8i-14" edge="1">
          <mxGeometry width="50" height="50" relative="1" as="geometry">
            <mxPoint x="390" y="580" as="sourcePoint" />
            <mxPoint x="470" y="436" as="targetPoint" />
            <Array as="points">
              <mxPoint x="470" y="470" />
            </Array>
          </mxGeometry>
        </mxCell>
        <mxCell id="5rK0yduPM2hFeAOG0hjZ-3" value="" style="edgeStyle=orthogonalEdgeStyle;rounded=0;orthogonalLoop=1;jettySize=auto;html=1;" parent="1" source="5rK0yduPM2hFeAOG0hjZ-1" target="5rK0yduPM2hFeAOG0hjZ-2" edge="1">
          <mxGeometry relative="1" as="geometry" />
        </mxCell>
        <mxCell id="5rK0yduPM2hFeAOG0hjZ-1" value="add file1 file2" style="rounded=0;whiteSpace=wrap;html=1;" parent="1" vertex="1">
          <mxGeometry x="130" y="280" width="120" height="60" as="geometry" />
        </mxCell>
        <mxCell id="5rK0yduPM2hFeAOG0hjZ-5" value="" style="edgeStyle=orthogonalEdgeStyle;rounded=0;orthogonalLoop=1;jettySize=auto;html=1;" parent="1" source="5rK0yduPM2hFeAOG0hjZ-2" target="5rK0yduPM2hFeAOG0hjZ-4" edge="1">
          <mxGeometry relative="1" as="geometry" />
        </mxCell>
        <mxCell id="5rK0yduPM2hFeAOG0hjZ-2" value="commit 2" style="whiteSpace=wrap;html=1;rounded=0;" parent="1" vertex="1">
          <mxGeometry x="130" y="360" width="120" height="60" as="geometry" />
        </mxCell>
        <mxCell id="5rK0yduPM2hFeAOG0hjZ-4" value="file1 수정작업&lt;div&gt;(file2: commit 2상태)&lt;/div&gt;" style="whiteSpace=wrap;html=1;rounded=0;dashed=1;fontStyle=0" parent="1" vertex="1">
          <mxGeometry x="130" y="441" width="120" height="60" as="geometry" />
        </mxCell>
        <mxCell id="Nt1TfCaZBekBmvhZon8i-1" value="commit 1" style="whiteSpace=wrap;html=1;rounded=0;" vertex="1" parent="1">
          <mxGeometry x="130" y="120" width="120" height="60" as="geometry" />
        </mxCell>
        <mxCell id="Nt1TfCaZBekBmvhZon8i-2" value="file1, file2 수정" style="whiteSpace=wrap;html=1;rounded=0;dashed=1" vertex="1" parent="1">
          <mxGeometry x="130" y="201" width="120" height="60" as="geometry" />
        </mxCell>
        <mxCell id="Nt1TfCaZBekBmvhZon8i-3" value="" style="edgeStyle=orthogonalEdgeStyle;rounded=0;orthogonalLoop=1;jettySize=auto;html=1;" edge="1" parent="1" source="Nt1TfCaZBekBmvhZon8i-1" target="Nt1TfCaZBekBmvhZon8i-2">
          <mxGeometry relative="1" as="geometry">
            <mxPoint x="200" y="350" as="sourcePoint" />
            <mxPoint x="200" y="370" as="targetPoint" />
          </mxGeometry>
        </mxCell>
        <mxCell id="Nt1TfCaZBekBmvhZon8i-4" value="" style="edgeStyle=orthogonalEdgeStyle;rounded=0;orthogonalLoop=1;jettySize=auto;html=1;" edge="1" parent="1" source="Nt1TfCaZBekBmvhZon8i-2" target="5rK0yduPM2hFeAOG0hjZ-1">
          <mxGeometry relative="1" as="geometry">
            <mxPoint x="210" y="360" as="sourcePoint" />
            <mxPoint x="210" y="380" as="targetPoint" />
          </mxGeometry>
        </mxCell>
        <mxCell id="Nt1TfCaZBekBmvhZon8i-9" value="reset (log : commit 1)" style="shape=table;startSize=30;container=1;collapsible=0;childLayout=tableLayout;strokeColor=default;fontSize=16;background=white" vertex="1" parent="1">
          <mxGeometry x="281" y="230" width="380" height="167" as="geometry" />
        </mxCell>
        <mxCell id="Nt1TfCaZBekBmvhZon8i-10" value="" style="shape=tableRow;horizontal=0;startSize=0;swimlaneHead=0;swimlaneBody=0;strokeColor=inherit;top=0;left=0;bottom=0;right=0;collapsible=0;dropTarget=0;fillColor=none;points=[[0,0.5],[1,0.5]];portConstraint=eastwest;fontSize=16;" vertex="1" parent="Nt1TfCaZBekBmvhZon8i-9">
          <mxGeometry y="30" width="380" height="68" as="geometry" />
        </mxCell>
        <mxCell id="Nt1TfCaZBekBmvhZon8i-11" value="soft&lt;div&gt;&lt;font style=&quot;font-size: 13px;&quot;&gt;(작업폴더 유지)&lt;/font&gt;&lt;/div&gt;" style="shape=partialRectangle;html=1;whiteSpace=wrap;connectable=0;strokeColor=inherit;overflow=hidden;fillColor=none;top=0;left=0;bottom=0;right=0;pointerEvents=1;fontSize=16;" vertex="1" parent="Nt1TfCaZBekBmvhZon8i-10">
          <mxGeometry width="127" height="68" as="geometry">
            <mxRectangle width="127" height="68" as="alternateBounds" />
          </mxGeometry>
        </mxCell>
        <mxCell id="Nt1TfCaZBekBmvhZon8i-12" value="mixed&lt;br&gt;&lt;font style=&quot;font-size: 13px;&quot;&gt;(혼합)&lt;/font&gt;" style="shape=partialRectangle;html=1;whiteSpace=wrap;connectable=0;strokeColor=inherit;overflow=hidden;fillColor=none;top=0;left=0;bottom=0;right=0;pointerEvents=1;fontSize=16;" vertex="1" parent="Nt1TfCaZBekBmvhZon8i-10">
          <mxGeometry x="127" width="126" height="68" as="geometry">
            <mxRectangle width="126" height="68" as="alternateBounds" />
          </mxGeometry>
        </mxCell>
        <mxCell id="Nt1TfCaZBekBmvhZon8i-13" value="hard&lt;div&gt;&lt;font style=&quot;font-size: 13px;&quot;&gt;(작업폴더 삭제)&lt;/font&gt;&lt;/div&gt;" style="shape=partialRectangle;html=1;whiteSpace=wrap;connectable=0;strokeColor=inherit;overflow=hidden;fillColor=none;top=0;left=0;bottom=0;right=0;pointerEvents=1;fontSize=16;" vertex="1" parent="Nt1TfCaZBekBmvhZon8i-10">
          <mxGeometry x="253" width="127" height="68" as="geometry">
            <mxRectangle width="127" height="68" as="alternateBounds" />
          </mxGeometry>
        </mxCell>
        <mxCell id="Nt1TfCaZBekBmvhZon8i-14" value="" style="shape=tableRow;horizontal=0;startSize=0;swimlaneHead=0;swimlaneBody=0;strokeColor=inherit;top=0;left=0;bottom=0;right=0;collapsible=0;dropTarget=0;fillColor=none;points=[[0,0.5],[1,0.5]];portConstraint=eastwest;fontSize=16;" vertex="1" parent="Nt1TfCaZBekBmvhZon8i-9">
          <mxGeometry y="98" width="380" height="69" as="geometry" />
        </mxCell>
        <mxCell id="Nt1TfCaZBekBmvhZon8i-15" value="file1: 현재 상태&lt;div&gt;file2: commit 2의&lt;span style=&quot;background-color: initial;&quot;&gt;&amp;nbsp;상태&lt;/span&gt;&lt;/div&gt;" style="shape=partialRectangle;html=1;whiteSpace=wrap;connectable=0;strokeColor=inherit;overflow=hidden;fillColor=none;top=0;left=0;bottom=0;right=0;pointerEvents=1;fontSize=12;align=left;" vertex="1" parent="Nt1TfCaZBekBmvhZon8i-14">
          <mxGeometry width="127" height="69" as="geometry">
            <mxRectangle width="127" height="69" as="alternateBounds" />
          </mxGeometry>
        </mxCell>
        <mxCell id="Nt1TfCaZBekBmvhZon8i-16" value="&lt;span&gt;file1: 현재 상태&lt;/span&gt;&lt;div&gt;file2: commit 1의 상태&lt;/div&gt;" style="shape=partialRectangle;html=1;whiteSpace=wrap;connectable=0;strokeColor=inherit;overflow=hidden;fillColor=none;top=0;left=0;bottom=0;right=0;pointerEvents=1;fontSize=12;align=left;" vertex="1" parent="Nt1TfCaZBekBmvhZon8i-14">
          <mxGeometry x="127" width="126" height="69" as="geometry">
            <mxRectangle width="126" height="69" as="alternateBounds" />
          </mxGeometry>
        </mxCell>
        <mxCell id="Nt1TfCaZBekBmvhZon8i-17" value="&lt;span&gt;file1:&amp;nbsp;&lt;/span&gt;commit 1의 상태&lt;div&gt;&lt;span&gt;file2:&amp;nbsp;&lt;/span&gt;&lt;span style=&quot;background-color: initial;&quot;&gt;commit 1의 상태&lt;/span&gt;&lt;/div&gt;" style="shape=partialRectangle;html=1;whiteSpace=wrap;connectable=0;strokeColor=inherit;overflow=hidden;fillColor=none;top=0;left=0;bottom=0;right=0;pointerEvents=1;fontSize=12;align=left;" vertex="1" parent="Nt1TfCaZBekBmvhZon8i-14">
          <mxGeometry x="253" width="127" height="69" as="geometry">
            <mxRectangle width="127" height="69" as="alternateBounds" />
          </mxGeometry>
        </mxCell>
        <mxCell id="Nt1TfCaZBekBmvhZon8i-22" value="" style="endArrow=classic;html=1;rounded=0;fontSize=12;startSize=8;endSize=8;edgeStyle=elbowEdgeStyle;" edge="1" parent="1" source="Nt1TfCaZBekBmvhZon8i-9" target="Nt1TfCaZBekBmvhZon8i-1">
          <mxGeometry width="50" height="50" relative="1" as="geometry">
            <mxPoint x="260" y="480" as="sourcePoint" />
            <mxPoint x="480" y="446" as="targetPoint" />
            <Array as="points">
              <mxPoint x="470" y="150" />
            </Array>
          </mxGeometry>
        </mxCell>
      </root>
    </mxGraphModel>
  </diagram>
</mxfile>
